<svg xmlns="http://www.w3.org/2000/svg" viewBox="0 0 384.89 384.89"><defs><style>.cls-1{isolation:isolate;}.cls-3{fill:#53a653;}.cls-4{fill:#6fbe5f;}.cls-5{fill:#91d86c;}.cls-6{fill:#90d86c;}.cls-7{fill:#b4f179;}.cls-8{fill:#bc002d;mix-blend-mode:hard-light;}</style></defs><title>hop</title><g class="cls-1"><g id="Layer_1" data-name="Layer 1"><path class="cls-3" d="M257,73.48c3.32-3.69,7.65-5.72,12.18-7.45,1.21-.46,2.71-.28,3.58-1.53h9.75c7.17,3.88,9.76,8.88,7.67,14.83A10.71,10.71,0,0,1,280.22,87c-7.75.62-11.92,5-12,12.8,0,3.23,0,6.46,0,9.7l-11.32.05,0-.07Z" transform="translate(-64.18 -64.43)"/><path class="cls-4" d="M273.49,110.14c29.85,1.52,57.9,8.6,82.21,26.92,18.88,14.24,31,33.27,38.41,55.47,6.95,20.92,9.45,42.53,9.11,64.51a10.89,10.89,0,0,1-10.82,10.7c-2.87.07-5.75,0-8.62,0-3.18-.5-6.37-.92-9.53-1.53a157.74,157.74,0,0,1-45-16.36c-6.13-3.29-12.22-6.65-18.32-10,1.44-3,2.86-6.09,4.33-9.12a89.25,89.25,0,0,0,9.09-33.26c.94-14.55.24-29.1-3.61-43.34-6.07-22.46-19.63-37.34-42.71-42.85C276.52,111,274.67,111.74,273.49,110.14Z" transform="translate(-64.18 -64.43)"/><path class="cls-5" d="M130.2,267.81c-2.87,0-5.74,0-8.6-.09-5.74-.24-10.75-4.79-10.77-10.47-.11-27.57,3.28-54.55,15.23-79.8,14-29.65,37.33-48.78,68.25-58.94a166,166,0,0,1,47-8.29c-.48.7-1.24.66-2,.8-22.15,4-37,16.51-44.14,38-2.95,8.91-4.2,18-5.09,27.35a107,107,0,0,0,4.17,42.3c2.2,7.16,5.46,13.85,8.77,20.52-17.25,11.11-35.54,19.84-55.5,25C141.77,265.66,135.89,266.24,130.2,267.81Z" transform="translate(-64.18 -64.43)"/><path class="cls-6" d="M273.49,110.14c1.18,1.6,3,.82,4.53,1.18,23.08,5.51,36.64,20.39,42.71,42.85,3.85,14.24,4.55,28.79,3.61,43.34a89.25,89.25,0,0,1-9.09,33.26c-1.47,3-2.89,6.08-4.33,9.12a13.16,13.16,0,0,0-1.42,1.68,141.48,141.48,0,0,1-19,24.62c-4.61,4.85-9.85,9-14.72,13.56-3.52,2.51-7,5-10.57,7.54-2.45,1.73-4.94,3.39-8.18,3l0-180.71,11.32-.05C270,109.75,271.86,109.12,273.49,110.14Z" transform="translate(-64.18 -64.43)"/><path class="cls-7" d="M257,109.54l0,180.71h0c-5.22-.15-8.67-3.84-12.74-6.32-1.95-1.18-3.23-3.54-5.92-3.45-.13-1.57-1.46-2.15-2.44-3.08-4.76-4.53-9.89-8.64-14.34-13.54A193.79,193.79,0,0,1,203,239.23c-3.31-6.67-6.57-13.36-8.77-20.52a107,107,0,0,1-4.17-42.3c.89-9.32,2.14-18.44,5.09-27.35,7.13-21.53,22-34,44.14-38,.74-.14,1.5-.1,2-.8l4.43-.71,11.31,0Z" transform="translate(-64.18 -64.43)"/><path class="cls-4" d="M203,239.23a193.79,193.79,0,0,0,18.55,24.63c4.45,4.9,9.58,9,14.34,13.54,1,.93,2.31,1.51,2.44,3.08a4.43,4.43,0,0,0-1.17.88c-8.59,12.95-19.48,23.66-31.93,32.86-2.41,1.54-4.79,3.11-7.23,4.61A108.18,108.18,0,0,1,158.63,334a76,76,0,0,1-13.37,1.29c-6.19,0-10.34-3.2-11.89-9.28a161.53,161.53,0,0,1-3.79-22.81c-1.16-10.82-.61-21.65-.05-32.47a16.13,16.13,0,0,1,.67-2.87c5.69-1.57,11.57-2.15,17.31-3.62C167.47,259.07,185.76,250.34,203,239.23Z" transform="translate(-64.18 -64.43)"/><path class="cls-3" d="M275.75,279.75c4.87-4.56,10.11-8.71,14.72-13.56a141.48,141.48,0,0,0,19-24.62,13.16,13.16,0,0,1,1.42-1.68c6.1,3.33,12.19,6.69,18.32,10a157.74,157.74,0,0,0,45,16.36c3.16.61,6.35,1,9.53,1.53a164.06,164.06,0,0,1-3,57.21c-1.76,7.46-5.62,10.42-13.33,10.23a56.57,56.57,0,0,1-12.16-1.35c-1.09-.19-2.19-.34-3.27-.58-15.83-3.52-30-10.68-43.3-19.76C296,304,284.71,293,275.75,279.75Z" transform="translate(-64.18 -64.43)"/><path class="cls-7" d="M158.63,334A108.18,108.18,0,0,0,198,318.83c2.44-1.5,4.82-3.07,7.23-4.61,4,9.36,8.28,18.57,13.85,27.16,7.34,11.3,16.37,21.21,25.14,31.35C233.56,382.14,222,390.23,209,396a78.82,78.82,0,0,1-29.34,6.68c-7,.13-10.91-3-12.6-9.81-4.73-19-9.72-38-8.19-57.85A4.87,4.87,0,0,0,158.63,334Z" transform="translate(-64.18 -64.43)"/><path class="cls-6" d="M308.75,313.51c13.29,9.08,27.47,16.24,43.3,19.76,1.08.24,2.18.39,3.27.58,0,5.73.16,11.46-.09,17.18-.67,15.17-4.71,29.7-9,44.13-1.5,5-5.59,7.57-10.85,7.57-9.36,0-18.21-2.39-26.84-5.8-1.14-.45-2.2-1.25-3.54-1-.33-.37-.58-.9-1-1.09-12.3-5.67-23.13-13.56-33.51-22.14.69-2.65,2.76-4.4,4.48-6.23C289.61,351,301.45,333.7,308.75,313.51Z" transform="translate(-64.18 -64.43)"/><path class="cls-3" d="M270.51,372.74c10.38,8.58,21.21,16.47,33.51,22.14.41.19.66.72,1,1.09-4.1,16.59-14.23,29-27.25,39.42q-6.7,5.36-13.53,10.57c-2.1,1.61-4.4,2.84-7.21,2.41q0-34,0-68.08c3.36.22,6-1.22,8.34-3.47C267,375.33,268,373.1,270.51,372.74Z" transform="translate(-64.18 -64.43)"/><path class="cls-4" d="M257,380.29q0,34,0,68.08a7.79,7.79,0,0,1-6-1.7c-9.2-7.43-19.18-13.94-27.07-22.94A69.3,69.3,0,0,1,209,396c13.06-5.81,24.61-13.9,35.28-23.31,1.11,1,2.18,2,3.33,2.92,2.77,2.25,5.45,4.73,9.4,4.56Z" transform="translate(-64.18 -64.43)"/><path class="cls-4" d="M257,109.47l-11.31,0c.33-5.85-.51-11.74.7-17.56A32.32,32.32,0,0,1,257,73.48Z" transform="translate(-64.18 -64.43)"/><path class="cls-4" d="M270.51,372.74c-2.5.36-3.56,2.59-5.14,4.08-2.38,2.25-5,3.69-8.34,3.47l-.07-.07q0-45,0-90h0c3.24.43,5.73-1.23,8.18-3,3.53-2.5,7.05-5,10.57-7.54,9,13.24,20.24,24.22,33,33.76-7.3,20.19-19.14,37.46-33.76,53C273.27,368.34,271.2,370.09,270.51,372.74Z" transform="translate(-64.18 -64.43)"/><path class="cls-6" d="M257,290.25q0,45,0,90c-3.95.16-6.63-2.32-9.4-4.57-1.15-.93-2.22-1.94-3.33-2.92-8.77-10.14-17.8-20.05-25.14-31.35-5.57-8.59-9.83-17.8-13.85-27.16,12.45-9.2,23.34-19.91,31.93-32.86a4.43,4.43,0,0,1,1.17-.88c2.69-.09,4,2.27,5.92,3.45C248.33,286.41,251.78,290.1,257,290.25Z" transform="translate(-64.18 -64.43)"/><circle class="cls-8" cx="191.82" cy="191.57" r="76.92"/></g></g></svg>